<?xml version="1.0" encoding="UTF-8" standalone="no"?>
<!-- Created with Inkscape (http://www.inkscape.org/) -->

<svg
   width="87.528152mm"
   height="17.826788mm"
   viewBox="0 0 87.528152 17.826788"
   version="1.1"
   id="svg1"
   sodipodi:docname="logo.svg"
   inkscape:version="1.3.2 (091e20ef0f, 2023-11-25, custom)"
   xmlns:inkscape="http://www.inkscape.org/namespaces/inkscape"
   xmlns:sodipodi="http://sodipodi.sourceforge.net/DTD/sodipodi-0.dtd"
   xmlns="http://www.w3.org/2000/svg"
   xmlns:svg="http://www.w3.org/2000/svg">
  <sodipodi:namedview
     id="namedview1"
     pagecolor="#ffffff"
     bordercolor="#666666"
     borderopacity="1.0"
     inkscape:showpageshadow="2"
     inkscape:pageopacity="0.0"
     inkscape:pagecheckerboard="0"
     inkscape:deskcolor="#d1d1d1"
     inkscape:document-units="mm"
     inkscape:zoom="3.0530653"
     inkscape:cx="165.40753"
     inkscape:cy="33.736586"
     inkscape:window-width="1920"
     inkscape:window-height="1016"
     inkscape:window-x="0"
     inkscape:window-y="1080"
     inkscape:window-maximized="1"
     inkscape:current-layer="svg1" />
  <defs
     id="defs1">
    <rect
       x="131.16774"
       y="171.2084"
       width="519.14807"
       height="194.68054"
       id="rect1" />
    <rect
       x="131.16774"
       y="171.2084"
       width="519.14807"
       height="194.68054"
       id="rect2" />
    <rect
       x="131.16774"
       y="171.2084"
       width="519.14807"
       height="194.68054"
       id="rect7" />
    <rect
       x="131.16774"
       y="171.2084"
       width="519.14807"
       height="194.68054"
       id="rect8" />
  </defs>
  <g
     id="layer1"
     transform="translate(-45.664571,-126.98471)">
    <path
       style="font-weight:900;font-size:40px;line-height:1.25;font-family:'Source Code Pro';-inkscape-font-specification:'Source Code Pro Heavy';white-space:pre;fill:#ffff00"
       d="m 139.72797,207.60399 h 6.88 v -20.24 h 7.48 v -5.76 h -21.84 v 5.76 h 7.48 z m 24.08001,0.48 c 2.48,0 4.84,-1.12 6.8,-2.56 h 0.16 l 0.48,2.08 h 5.6 v -11.12 c 0,-6.56 -3.68,-9.36 -9.36,-9.36 -3.36,0 -6.48,0.96 -9.52,2.64 l 2.4,4.48 c 2.4,-1.12 4.08,-1.68 5.76,-1.68 2.24,0 3.6,0.64 3.84,2.08 -9.12,0.48 -12.64,2.8 -12.64,7.28 0,3.28 2.32,6.16 6.48,6.16 z m 2.24,-5.28 c -1.44,0 -2.16,-0.52 -2.16,-1.44 0,-1.36 1.2,-2.48 6.08,-2.64 v 2.56 c -1.08,0.8 -2.32,1.52 -3.92,1.52 z m 28.76002,5.28 c 2.6,0 4.04,-0.4 6.2,-1.04 l -1.48,-5.04 c -1.16,0.4 -2.04,0.56 -2.88,0.56 -1.4,0 -3,-0.64 -3,-2.96 v -19.84 h -12.88 v 5.36 h 6 v 14.24 c 0,5.2 2.72,8.72 8.04,8.72 z m 10.92001,-0.48 h 6.88 v -4.88 l 2.32,-2.56 4.4,7.44 h 7.44 l -7.92,-11.76 7.44,-8.24 h -7.44 l -6.08,7.12 h -0.16 v -14.96 h -6.88 z m 56.00004,0 h 6.88 v -20 h -14.48 v 5.36 h 7.6 z m 3.2,-22.72 c 2.56,0 4.4,-1.6 4.4,-4 0,-2.4 -1.84,-4.08 -4.4,-4.08 -2.56,0 -4.4,1.68 -4.4,4.08 0,2.4 1.84,4 4.4,4 z m 21.84001,23.2 c 6.68,0 10.24,-2.88 10.24,-6.64 0,-3.32 -1.76,-5.12 -7.76,-6.48 -3.12,-0.72 -4.16,-0.8 -4.16,-1.68 0,-0.72 0.8,-1.12 2.08,-1.12 2.08,0 4.4,0.64 6.48,1.84 l 3.04,-4.08 c -2.12,-1.32 -5.12,-2.8 -8.88,-2.8 -5.8,0 -9.52,2.56 -9.52,6.48 0,3.12 2,5.2 7.52,6.4 3.36,0.72 4.4,0.88 4.4,1.84 0,0.72 -0.72,1.2 -2.48,1.2 -2.56,0 -5.32,-0.76 -7.84,-2.24 l -2.88,4.24 c 2.56,1.68 6.32,3.04 9.76,3.04 z m 50.08003,0 c 2.64,0 5.84,-0.84 8.32,-2.88 l -2.72,-4.32 c -1.36,0.84 -2.96,1.68 -4.92,1.68 -2.8,0 -4.84,-1.92 -4.84,-4.96 0,-3.04 2.08,-4.96 5.08,-4.96 1.28,0 2.56,0.36 4.04,1.36 l 3.12,-4.24 c -1.68,-1.6 -4.44,-2.64 -7.56,-2.64 -6.2,0 -11.72,3.84 -11.72,10.48 0,6.64 4.88,10.48 11.2,10.48 z m 12.88002,-0.48 h 6.88 v -13.12 c 1.04,-0.96 1.92,-1.52 3.2,-1.52 1.76,0 2.32,0.96 2.32,3.2 v 11.44 h 6.88 v -12.32 c 0,-4.96 -1.92,-8.16 -6.32,-8.16 -2.96,0 -5.04,1.36 -6.32,2.64 h -0.16 l 0.4,-3.52 v -6.48 h -6.88 z m 34.16001,-15.28 c 1.88,0 2.92,1 3.2,2.88 h -7 c 0.56,-1.96 1.84,-2.88 3.8,-2.88 z m 0.48,15.76 c 2.48,0 5.6,-0.8 8,-2.32 l -2.24,-4.08 c -1.76,0.8 -3.2,1.2 -4.8,1.2 -2.92,0 -4.68,-0.96 -5.28,-3.2 h 12.84 c 0.08,-0.48 0.28,-1.68 0.28,-2.88 0,-5.36 -3.2,-9.68 -9.52,-9.68 -5.36,0 -10.48,3.92 -10.48,10.48 0,6.64 4.88,10.48 11.2,10.48 z m 19.44003,0 c 2.48,0 4.84,-1.12 6.8,-2.56 h 0.16 l 0.48,2.08 h 5.6 v -11.12 c 0,-6.56 -3.68,-9.36 -9.36,-9.36 -3.36,0 -6.48,0.96 -9.52,2.64 l 2.4,4.48 c 2.4,-1.12 4.08,-1.68 5.76,-1.68 2.24,0 3.6,0.64 3.84,2.08 -9.12,0.48 -12.64,2.8 -12.64,7.28 0,3.28 2.32,6.16 6.48,6.16 z m 2.24,-5.28 c -1.44,0 -2.16,-0.52 -2.16,-1.44 0,-1.36 1.2,-2.48 6.08,-2.64 v 2.56 c -1.08,0.8 -2.32,1.52 -3.92,1.52 z m 15.68,11.84 h 6.88 v -5.52 l -0.32,-3.04 h 0.16 c 1.28,1.28 2.8,2 4.52,2 4.36,0 8.52,-3.92 8.52,-10.8 0,-6.16 -3.08,-10.16 -7.92,-10.16 -2.04,0 -4.08,0.96 -5.6,2.32 h -0.16 l -0.48,-1.84 h -5.6 z m 9.6,-12.16 c -0.92,0 -1.88,-0.24 -2.72,-0.96 v -7.36 c 0.96,-1.04 1.8,-1.44 2.88,-1.44 1.96,0 2.96,1.36 2.96,4.64 0,3.84 -1.44,5.12 -3.12,5.12 z"
       id="text7"
       transform="matrix(0.28304263,0,0,0.18226775,8.2327584,105.68882)"
       aria-label="Talk is cheap" />
    <path
       style="font-weight:900;font-size:40px;line-height:1.25;font-family:'Source Code Pro';-inkscape-font-specification:'Source Code Pro Heavy';white-space:pre;fill:#ff1493"
       d="m 133.24797,207.60399 h 5.6 v -6.12 c 0,-3.08 -0.56,-10.16 -0.88,-13.2 h 0.16 l 2,7.72 1.44,4.72 h 3.04 l 1.36,-4.72 2.2,-7.72 h 0.12 c -0.32,3.04 -0.88,10.12 -0.88,13.2 v 6.12 h 5.68 v -26 h -7 l -2.12,8.48 -0.72,3.36 h -0.16 l -0.72,-3.36 -2.12,-8.48 h -7 z m 34.64001,-15.28 c 1.88,0 2.92,1 3.2,2.88 h -7 c 0.56,-1.96 1.84,-2.88 3.8,-2.88 z m 0.48,15.76 c 2.48,0 5.6,-0.8 8,-2.32 l -2.24,-4.08 c -1.76,0.8 -3.2,1.2 -4.8,1.2 -2.92,0 -4.68,-0.96 -5.28,-3.2 h 12.84 c 0.08,-0.48 0.28,-1.68 0.28,-2.88 0,-5.36 -3.2,-9.68 -9.52,-9.68 -5.36,0 -10.48,3.92 -10.48,10.48 0,6.64 4.88,10.48 11.2,10.48 z m 20.84002,0 c 1.8,0 3.76,-0.96 5.16,-2.32 h 0.16 l 0.48,1.84 h 5.6 v -27.84 h -6.88 v 6.48 l 0.32,2.88 h -0.16 c -1.2,-1.28 -2.56,-2 -4.68,-2 -4.2,0 -8.36,3.92 -8.36,10.48 0,6.48 3.28,10.48 8.36,10.48 z m 1.8,-5.6 c -1.96,0 -3.12,-1.36 -3.12,-4.96 0,-3.52 1.52,-4.8 3.2,-4.8 0.96,0 1.84,0.24 2.64,0.96 v 7.36 c -0.76,1.12 -1.6,1.44 -2.72,1.44 z m 27.80001,5.6 c 2.6,0 4.04,-0.4 6.2,-1.04 l -1.48,-5.04 c -1.16,0.4 -2.04,0.56 -2.88,0.56 -1.4,0 -3,-0.64 -3,-2.96 v -19.84 h -12.88 v 5.36 h 6 v 14.24 c 0,5.2 2.72,8.72 8.04,8.72 z m 21.08002,-15.76 c 1.88,0 2.92,1 3.2,2.88 h -7 c 0.56,-1.96 1.84,-2.88 3.8,-2.88 z m 0.48,15.76 c 2.48,0 5.6,-0.8 8,-2.32 l -2.24,-4.08 c -1.76,0.8 -3.2,1.2 -4.8,1.2 -2.92,0 -4.68,-0.96 -5.28,-3.2 h 12.84 c 0.08,-0.48 0.28,-1.68 0.28,-2.88 0,-5.36 -3.2,-9.68 -9.52,-9.68 -5.36,0 -10.48,3.92 -10.48,10.48 0,6.64 4.88,10.48 11.2,10.48 z m 16.68002,7.04 c 5.24,0 7.6,-2.44 9.72,-7.84 l 7.52,-19.68 h -6.48 l -2.4,7.68 c -0.6,2 -1.24,4.04 -1.72,6.08 h -0.16 c -0.56,-2.16 -1.12,-4.16 -1.8,-6.08 l -2.8,-7.68 h -6.8 l 8.4,19.28 -0.32,0.88 c -0.52,1.2 -1.6,2 -3.72,2 -0.44,0 -0.92,-0.08 -1.44,-0.24 l -1.2,5.2 c 0.92,0.24 1.96,0.4 3.2,0.4 z m 53.96003,-7.04 c 6.72,0 10.4,-3.92 10.4,-8.32 0,-3.6 -2,-5.84 -5.48,-7.12 l -3,-1.24 c -2.6,-0.96 -4.08,-1.4 -4.08,-2.6 0,-1.2 1.04,-1.76 2.56,-1.76 2.48,0 3.96,0.64 5.84,1.88 l 3.44,-4.32 c -2.52,-2.36 -5.8,-3.48 -8.88,-3.48 -5.92,0 -9.92,3.64 -9.92,8.08 0,3.76 2.48,6.12 5.48,7.24 l 3.24,1.36 c 2.4,1 3.76,1.32 3.76,2.84 0,0.84 -0.8,1.52 -2.88,1.52 -2.36,0 -4.68,-1.04 -6.64,-2.52 l -3.92,4.72 c 2.92,2.52 6.68,3.72 10.08,3.72 z m 14.24001,-0.48 h 5.6 v -6.12 c 0,-3.08 -0.56,-10.16 -0.88,-13.2 h 0.16 l 2,7.72 1.44,4.72 h 3.04 l 1.36,-4.72 2.2,-7.72 h 0.12 c -0.32,3.04 -0.88,10.12 -0.88,13.2 v 6.12 h 5.68 v -26 h -7 l -2.12,8.48 -0.72,3.36 h -0.16 l -0.72,-3.36 -2.12,-8.48 h -7 z"
       id="text2"
       transform="matrix(0.41087006,0,0,0.26458333,-8.7181776,80.714977)"
       aria-label="Medley SM" />
    <path
       style="font-weight:600;font-size:40px;line-height:1.25;font-family:'Source Code Pro';-inkscape-font-specification:'Source Code Pro, Semi-Bold';white-space:pre;fill:#00ffff;stroke:#000000"
       d="m 133.76797,207.60399 h 4 v -10.56 c 0,-2.76 -0.4,-8.16 -0.68,-10.72 h 0.12 l 1.72,6.08 2.84,8.28 h 2.64 l 2.88,-8.28 1.76,-6.08 h 0.12 c -0.24,2.56 -0.68,7.96 -0.68,10.72 v 10.56 h 4.08 v -26.16 h -5.12 l -3.16,10.2 -1.04,3.92 h -0.16 l -1.08,-3.92 -3.12,-10.2 h -5.12 z m 34.12001,-16.56 c 2.8,0 4.56,1.6 4.88,4.8 h -10.44 c 0.6,-3.16 2.84,-4.8 5.56,-4.8 z m 0.48,17.04 c 2.88,0 5.6,-0.96 7.68,-2.32 l -1.56,-2.88 c -1.76,1 -3.44,1.64 -5.52,1.64 -3.64,0 -6.24,-1.76 -6.76,-5.4 h 14.44 c 0.08,-0.52 0.2,-1.4 0.2,-2.32 0,-5.44 -3.24,-9.32 -9.08,-9.32 -5.28,0 -10.16,3.88 -10.16,10.28 0,6.52 4.76,10.32 10.76,10.32 z m 21.32002,0 c 2.2,0 4.4,-1.24 5.92,-2.76 h 0.12 l 0.36,2.28 h 3.8 v -28.24 h -4.64 v 7.12 l 0.24,3.32 h -0.12 c -1.52,-1.48 -3.16,-2.32 -5.4,-2.32 -4.48,0 -8.68,3.92 -8.68,10.32 0,6.48 3.36,10.28 8.4,10.28 z m 1.12,-3.8 c -3,0 -4.76,-2.28 -4.76,-6.52 0,-4.12 2.28,-6.48 5,-6.48 1.44,0 2.8,0.48 4.2,1.8 v 8.84 c -1.36,1.6 -2.8,2.36 -4.44,2.36 z m 28.40001,3.8 c 2.28,0 3.64,-0.4 5.56,-1.12 l -1.08,-3.4 c -1.24,0.52 -2.32,0.76 -3.36,0.76 -1.96,0 -3.52,-1 -3.52,-3.64 v -21.32 h -11.16 v 3.64 h 6.56 v 17.44 c 0,4.84 2.44,7.64 7,7.64 z m 20.68002,-17.04 c 2.8,0 4.56,1.6 4.88,4.8 h -10.44 c 0.6,-3.16 2.84,-4.8 5.56,-4.8 z m 0.48,17.04 c 2.88,0 5.6,-0.96 7.68,-2.32 l -1.56,-2.88 c -1.76,1 -3.44,1.64 -5.52,1.64 -3.64,0 -6.24,-1.76 -6.76,-5.4 h 14.44 c 0.08,-0.52 0.2,-1.4 0.2,-2.32 0,-5.44 -3.24,-9.32 -9.08,-9.32 -5.28,0 -10.16,3.88 -10.16,10.28 0,6.52 4.76,10.32 10.76,10.32 z m 16.28002,7.6 c 4.72,0 7.08,-2.76 8.76,-7.2 l 8.2,-20.52 h -4.36 l -3.56,9.64 c -0.64,1.84 -1.36,3.88 -1.96,5.76 h -0.16 c -0.72,-1.96 -1.44,-4 -2.16,-5.76 l -4.04,-9.64 h -4.6 l 8.8,19.4 -0.48,1.24 c -0.8,1.96 -2.24,3.36 -4.72,3.36 -0.56,0 -1.12,-0.12 -1.64,-0.28 l -0.88,3.6 c 0.76,0.24 1.76,0.4 2.8,0.4 z m 54.60003,-7.6 c 6.08,0 9.68,-3.52 9.68,-7.76 0,-3.8 -2.36,-5.76 -5.68,-7.08 l -3.44,-1.48 c -2.36,-0.92 -4.48,-1.68 -4.48,-3.68 0,-1.96 1.68,-3.08 4.16,-3.08 2.64,0 4.48,0.84 6.24,2.24 l 2.4,-2.96 c -2.16,-2.04 -5.2,-3.32 -8.4,-3.32 -5.32,0 -9.08,3.2 -9.08,7.36 0,3.84 2.84,5.88 5.6,6.96 l 3.56,1.56 c 2.6,1.08 4.4,1.72 4.4,4.04 0,1.84 -1.64,3.16 -4.68,3.16 -2.76,0 -5.36,-1.2 -7.32,-2.96 l -2.72,3.16 c 2.6,2.44 6.08,3.84 9.76,3.84 z m 14.52001,-0.48 h 4 v -10.56 c 0,-2.76 -0.4,-8.16 -0.68,-10.72 h 0.12 l 1.72,6.08 2.84,8.28 h 2.64 l 2.88,-8.28 1.76,-6.08 h 0.12 c -0.24,2.56 -0.68,7.96 -0.68,10.72 v 10.56 h 4.08 v -26.16 h -5.12 l -3.16,10.2 -1.04,3.92 h -0.16 l -1.08,-3.92 -3.12,-10.2 h -5.12 z"
       id="text1"
       transform="matrix(0.41087006,0,0,0.26458333,-8.7181776,79.692837)"
       aria-label="Medley SM" />
    <path
       style="font-weight:600;font-size:40px;line-height:1.25;font-family:'Source Code Pro';-inkscape-font-specification:'Source Code Pro, Semi-Bold';white-space:pre;fill:#ff1493"
       d="m 140.84797,207.60399 h 4.64 v -22.24 h 8.24 v -3.92 h -21.12 v 3.92 h 8.24 z m 23.72001,0.48 c 2.64,0 5.28,-1.32 7.36,-2.92 h 0.12 l 0.36,2.44 h 3.76 v -11.64 c 0,-5.48 -3,-8.48 -8.44,-8.48 -3.36,0 -6.6,1.32 -8.96,2.72 l 1.68,3.08 c 2.04,-1.12 4.24,-2.08 6.44,-2.08 3.2,0 4.52,1.64 4.68,3.84 -9.68,0.68 -13.56,2.88 -13.56,7.28 0,3.44 2.72,5.76 6.56,5.76 z m 1.4,-3.6 c -1.96,0 -3.52,-0.76 -3.52,-2.52 0,-2.12 2.08,-3.56 9.12,-4.04 v 4.16 c -1.8,1.44 -3.64,2.4 -5.6,2.4 z m 29.24002,3.6 c 2.28,0 3.64,-0.4 5.56,-1.12 l -1.08,-3.4 c -1.24,0.52 -2.32,0.76 -3.36,0.76 -1.96,0 -3.52,-1 -3.52,-3.64 v -21.32 h -11.16 v 3.64 h 6.56 v 17.44 c 0,4.84 2.44,7.64 7,7.64 z m 11.56001,-0.48 h 4.64 v -5.12 l 3.72,-3.84 6.2,8.96 h 5.04 l -8.48,-11.8 7.64,-7.84 h -5.12 l -8.84,9.08 h -0.16 v -17.68 h -4.64 z m 56.28004,0 h 4.6 v -19.64 h -13.12 v 3.64 h 8.52 z m 1.96,-23.24 c 1.88,0 3.28,-1.2 3.28,-3.08 0,-1.84 -1.4,-3.12 -3.28,-3.12 -1.88,0 -3.28,1.28 -3.28,3.12 0,1.88 1.4,3.08 3.28,3.08 z m 22.28001,23.72 c 5.96,0 9.2,-2.72 9.2,-6.08 0,-3.12 -1.64,-4.8 -7.92,-6.2 -3.64,-0.8 -5.12,-1.28 -5.12,-2.68 0,-1.2 1.04,-2.16 3.64,-2.16 2.32,0 4.56,0.72 6.48,1.96 l 2.12,-2.84 c -2,-1.32 -4.96,-2.6 -8.2,-2.6 -5.52,0 -8.64,2.44 -8.64,5.88 0,2.96 2.36,4.84 7.6,5.92 4.56,0.96 5.44,1.68 5.44,2.96 0,1.32 -1.28,2.36 -4,2.36 -3.2,0 -5.88,-0.92 -8.24,-2.48 l -2,2.92 c 2.44,1.64 5.96,3.04 9.64,3.04 z m 49.64003,0 c 2.8,0 5.68,-1 7.96,-2.96 l -1.92,-2.96 c -1.52,1.16 -3.36,2.16 -5.6,2.16 -3.88,0 -6.52,-2.6 -6.52,-6.52 0,-3.96 2.72,-6.56 6.64,-6.56 1.76,0 3.32,0.64 4.84,1.88 l 2.2,-2.88 c -1.64,-1.56 -4.12,-2.76 -7.28,-2.76 -6,0 -11.16,3.76 -11.16,10.32 0,6.52 4.68,10.28 10.84,10.28 z m 13.52002,-0.48 h 4.64 v -13.4 c 1.8,-1.84 3.12,-2.76 5.04,-2.76 2.68,0 3.68,1.44 3.68,4.6 v 11.56 h 4.64 v -12.16 c 0,-5.08 -2.08,-7.96 -6.6,-7.96 -3,0 -5.2,1.56 -6.92,3.36 h -0.12 l 0.28,-4.2 v -7.28 h -4.64 z m 33.44001,-16.56 c 2.8,0 4.56,1.6 4.88,4.8 h -10.44 c 0.6,-3.16 2.84,-4.8 5.56,-4.8 z m 0.48,17.04 c 2.88,0 5.6,-0.96 7.68,-2.32 l -1.56,-2.88 c -1.76,1 -3.44,1.64 -5.52,1.64 -3.64,0 -6.24,-1.76 -6.76,-5.4 h 14.44 c 0.08,-0.52 0.2,-1.4 0.2,-2.32 0,-5.44 -3.24,-9.32 -9.08,-9.32 -5.28,0 -10.16,3.88 -10.16,10.28 0,6.52 4.76,10.32 10.76,10.32 z m 20.20003,0 c 2.64,0 5.28,-1.32 7.36,-2.92 h 0.12 l 0.36,2.44 h 3.76 v -11.64 c 0,-5.48 -3,-8.48 -8.44,-8.48 -3.36,0 -6.6,1.32 -8.96,2.72 l 1.68,3.08 c 2.04,-1.12 4.24,-2.08 6.44,-2.08 3.2,0 4.52,1.64 4.68,3.84 -9.68,0.68 -13.56,2.88 -13.56,7.28 0,3.44 2.72,5.76 6.56,5.76 z m 1.4,-3.6 c -1.96,0 -3.52,-0.76 -3.52,-2.52 0,-2.12 2.08,-3.56 9.12,-4.04 v 4.16 c -1.8,1.44 -3.64,2.4 -5.6,2.4 z m 16.48,10.88 h 4.64 v -6.16 l -0.24,-3.44 h 0.12 c 1.56,1.48 3.56,2.32 5.36,2.32 4.52,0 8.72,-3.88 8.72,-10.6 0,-6.08 -2.92,-10 -8.04,-10 -2.24,0 -4.6,1.16 -6.28,2.72 h -0.12 l -0.36,-2.24 h -3.8 z m 8.92,-11.08 c -1.2,0 -2.84,-0.48 -4.28,-1.8 v -8.84 c 1.6,-1.64 3.16,-2.36 4.64,-2.36 3.2,0 4.56,2.32 4.56,6.24 0,4.44 -2.12,6.76 -4.92,6.76 z"
       id="text6"
       transform="matrix(0.28304263,0,0,0.18226775,8.2327584,105.15965)"
       aria-label="Talk is cheap" />
  </g>
</svg>
